<?xml version="1.0" encoding="iso-8859-1"?>
<!-- Generator: Adobe Illustrator 17.1.0, SVG Export Plug-In . SVG Version: 6.00 Build 0)  -->
<!DOCTYPE svg PUBLIC "-//W3C//DTD SVG 1.1//EN" "http://www.w3.org/Graphics/SVG/1.1/DTD/svg11.dtd">
<svg version="1.1" id="Capa_1" xmlns="http://www.w3.org/2000/svg" xmlns:xlink="http://www.w3.org/1999/xlink" x="0px" y="0px"
	 viewBox="0 0 416.428 416.428" style="enable-background:new 0 0 416.428 416.428;" xml:space="preserve">
<path d="M381.215,76.777h-47.697c0.43-1.43,0.661-2.957,0.661-4.596c0-1.151,0.056-2.808,0.12-4.727
	c0.513-15.32,1.468-43.837-12.849-58.642C315.793,2.966,308.53,0,299.86,0c-22.32,0-50.588,20.475-61.706,29.277
	c-4.302,3.406-20.977,16.979-29.94,29.503c-8.962-12.524-25.638-26.097-29.94-29.503C167.157,20.475,138.888,0,116.568,0
	c-8.67,0-15.934,2.966-21.589,8.813C80.662,23.618,81.617,52.135,82.129,67.455c0.064,1.919,0.12,3.575,0.12,4.727
	c0,1.639,0.231,3.166,0.661,4.596H35.213c-9.649,0-17.5,7.851-17.5,17.5v43.377c0,9.649,7.851,17.5,17.5,17.5h14.052v184.225
	c0,7.444,6.056,13.5,13.5,13.5h103.449v55.432c0,1.886,0.633,3.714,1.783,5.147c1.514,1.887,3.772,2.97,6.197,2.97
	c1.436-0.001,2.868-0.39,4.146-1.13l29.873-17.317l29.879,17.321c1.273,0.736,2.705,1.126,4.141,1.126
	c4.475,0,7.98-3.565,7.98-8.117v-55.432h103.449c7.444,0,13.5-6.056,13.5-13.5V155.154h14.052c9.649,0,17.5-7.851,17.5-17.5V94.277
	C398.715,84.628,390.864,76.777,381.215,76.777z M249.052,39.793C269.042,24.269,288.035,15,299.86,15
	c4.574,0,8.008,1.348,10.807,4.241c9.895,10.232,9.015,36.497,8.64,47.712c-0.068,2.054-0.128,3.826-0.128,5.229
	c0,0.016,0,0.03,0,0.043c-0.326,0.355-2.587,2.374-12.669,3.515c-8.49,0.96-67.915,0.96-76.403,0
	c-9.599-1.086-12.108-2.968-12.607-3.452C218.875,68.217,230.052,54.55,249.052,39.793z M109.919,75.739
	c-10.083-1.141-12.344-3.159-12.67-3.515c0-0.013,0-0.027,0-0.043c0-1.402-0.06-3.175-0.128-5.229
	c-0.375-11.215-1.255-37.479,8.64-47.712C108.56,16.348,111.994,15,116.568,15c11.825,0,30.818,9.269,50.808,24.793
	c19,14.757,30.177,28.424,31.554,32.494c-0.5,0.484-3.009,2.366-12.607,3.452C177.833,76.699,118.409,76.699,109.919,75.739z
	 M35.213,140.154c-1.355,0-2.5-1.145-2.5-2.5V94.277c0-1.355,1.145-2.5,2.5-2.5h107.241h11.332h12.428v48.377H62.765H35.213z
	 M64.265,337.879V155.154h101.949v182.725H64.265z M235.214,396.294l-22.37-12.968c-1.376-0.799-2.977-1.221-4.63-1.221
	s-3.254,0.422-4.627,1.219l-22.373,12.97V91.777h54V396.294z M352.163,337.879H250.214V155.154h101.949V337.879z M383.715,137.654
	c0,1.355-1.145,2.5-2.5,2.5h-27.552H250.214V91.777h12.428h11.332h107.241c1.355,0,2.5,1.145,2.5,2.5V137.654z"/>
<g>
</g>
<g>
</g>
<g>
</g>
<g>
</g>
<g>
</g>
<g>
</g>
<g>
</g>
<g>
</g>
<g>
</g>
<g>
</g>
<g>
</g>
<g>
</g>
<g>
</g>
<g>
</g>
<g>
</g>
</svg>
